<?xml version="1.0" encoding="utf-8" standalone="no"?>
<!DOCTYPE svg PUBLIC "-//W3C//DTD SVG 1.1//EN"
  "http://www.w3.org/Graphics/SVG/1.1/DTD/svg11.dtd">
<svg xmlns:xlink="http://www.w3.org/1999/xlink" width="1008pt" height="612pt" viewBox="0 0 1008 612" xmlns="http://www.w3.org/2000/svg" version="1.1">
 <metadata>
  <rdf:RDF xmlns:dc="http://purl.org/dc/elements/1.1/" xmlns:cc="http://creativecommons.org/ns#" xmlns:rdf="http://www.w3.org/1999/02/22-rdf-syntax-ns#">
   <cc:Work>
    <dc:type rdf:resource="http://purl.org/dc/dcmitype/StillImage"/>
    <dc:date>2022-05-03T10:48:09.358228</dc:date>
    <dc:format>image/svg+xml</dc:format>
    <dc:creator>
     <cc:Agent>
      <dc:title>Matplotlib v3.5.1, https://matplotlib.org/</dc:title>
     </cc:Agent>
    </dc:creator>
   </cc:Work>
  </rdf:RDF>
 </metadata>
 <defs>
  <style type="text/css">*{stroke-linejoin: round; stroke-linecap: butt}</style>
 </defs>
 <g id="figure_1">
  <g id="patch_1">
   <path d="M 0 612 
L 1008 612 
L 1008 0 
L 0 0 
z
" style="fill: #ffffff"/>
  </g>
  <g id="axes_1">
   <g id="patch_2">
    <path d="M 126 544.68 
L 907.2 544.68 
L 907.2 73.44 
L 126 73.44 
z
" style="fill: #ffffff"/>
   </g>
   <g id="matplotlib.axis_1">
    <g id="xtick_1">
     <g id="text_1">
      <!-- $ARs$ -->
      <g style="fill: #262626" transform="translate(177.424538 573.205867)scale(0.275 -0.275)">
       <defs>
        <path id="CMMI12-41" d="M 1088 691 
C 864 314 646 186 339 186 
C 269 180 218 180 218 58 
C 218 24 250 0 294 0 
C 410 0 698 0 813 0 
C 998 0 1203 0 1382 0 
C 1421 0 1498 0 1498 122 
C 1498 180 1446 186 1408 186 
C 1261 186 1139 236 1139 388 
C 1139 476 1178 546 1261 685 
L 1747 1479 
L 3379 1479 
C 3386 1423 3386 1373 3392 1316 
C 3411 1152 3488 495 3488 376 
C 3488 186 3162 186 3059 186 
C 2989 186 2918 186 2918 70 
C 2918 0 2976 0 3014 0 
C 3123 0 3251 0 3360 0 
L 3725 0 
C 4115 0 4397 0 4403 0 
C 4448 0 4518 0 4518 122 
C 4518 186 4461 186 4365 186 
C 4013 186 4006 244 3987 434 
L 3597 4404 
C 3584 4531 3558 4544 3488 4544 
C 3424 4544 3386 4531 3328 4435 
L 1088 691 
z
M 1856 1664 
L 3142 3819 
L 3360 1664 
L 1856 1664 
z
" transform="scale(0.015625)"/>
        <path id="CMMI12-52" d="M 2355 3924 
C 2413 4160 2438 4160 2688 4160 
L 3149 4160 
C 3699 4160 4109 3995 4109 3499 
C 4109 3175 3942 2240 2656 2240 
L 1933 2240 
L 2355 3924 
z
M 3245 2169 
C 4038 2341 4659 2851 4659 3398 
C 4659 3894 4154 4352 3264 4352 
L 1530 4352 
C 1402 4352 1344 4352 1344 4226 
C 1344 4160 1389 4160 1510 4160 
C 1894 4160 1894 4112 1894 4045 
C 1894 4033 1894 3994 1869 3899 
L 1005 479 
C 947 256 934 192 493 192 
C 346 192 301 192 301 71 
C 301 7 371 7 390 7 
C 506 7 640 7 762 7 
L 1517 7 
C 1632 7 1766 7 1882 7 
C 1933 7 2003 7 2003 128 
C 2003 192 1946 192 1850 192 
C 1459 192 1459 243 1459 306 
C 1459 313 1459 357 1472 407 
L 1901 2112 
L 2669 2112 
C 3277 2112 3392 1731 3392 1522 
C 3392 1427 3328 1179 3283 1014 
C 3213 723 3194 652 3194 532 
C 3194 82 3565 -128 3994 -128 
C 4512 -128 4736 501 4736 591 
C 4736 635 4704 654 4666 654 
C 4614 654 4602 616 4589 565 
C 4435 114 4173 0 4013 0 
C 3853 0 3750 70 3750 356 
C 3750 509 3827 1088 3834 1120 
C 3866 1355 3866 1380 3866 1432 
C 3866 1896 3488 2093 3245 2169 
z
" transform="scale(0.015625)"/>
        <path id="CMMI12-73" d="M 1459 1280 
C 1568 1261 1741 1223 1779 1216 
C 1862 1192 2150 1090 2150 783 
C 2150 586 1971 70 1229 70 
C 1094 70 614 70 486 436 
C 742 404 870 603 870 745 
C 870 880 781 950 653 950 
C 512 950 326 841 326 552 
C 326 173 710 -64 1222 -64 
C 2195 -64 2483 651 2483 984 
C 2483 1079 2483 1258 2278 1462 
C 2118 1616 1965 1648 1619 1718 
C 1446 1756 1171 1814 1171 2101 
C 1171 2229 1286 2689 1894 2689 
C 2163 2689 2426 2589 2490 2368 
C 2208 2368 2195 2125 2195 2119 
C 2195 1984 2317 1946 2374 1946 
C 2464 1946 2643 2015 2643 2281 
C 2643 2545 2400 2816 1901 2816 
C 1062 2816 838 2160 838 1899 
C 838 1414 1312 1312 1459 1280 
z
" transform="scale(0.015625)"/>
       </defs>
       <use xlink:href="#CMMI12-41" transform="scale(0.996264)"/>
       <use xlink:href="#CMMI12-52" transform="translate(73.127885 0)scale(0.996264)"/>
       <use xlink:href="#CMMI12-73" transform="translate(148.198847 0)scale(0.996264)"/>
      </g>
     </g>
    </g>
    <g id="xtick_2">
     <g id="text_2">
      <!-- $CCRs$ -->
      <g style="fill: #262626" transform="translate(322.55924 573.205867)scale(0.275 -0.275)">
       <defs>
        <path id="CMMI12-43" d="M 4781 4423 
C 4781 4480 4736 4480 4723 4480 
C 4710 4480 4685 4480 4634 4416 
L 4192 3882 
C 3968 4264 3616 4480 3136 4480 
C 1754 4480 320 3088 320 1595 
C 320 533 1069 -128 2003 -128 
C 2515 -128 2963 88 3334 400 
C 3891 863 4058 1481 4058 1531 
C 4058 1588 4006 1588 3987 1588 
C 3930 1588 3923 1550 3910 1524 
C 3616 534 2752 57 2112 57 
C 1434 57 845 489 845 1391 
C 845 1595 909 2700 1632 3532 
C 1984 3939 2586 4295 3194 4295 
C 3898 4295 4211 3717 4211 3068 
C 4211 2903 4192 2764 4192 2738 
C 4192 2681 4256 2681 4275 2681 
C 4346 2681 4352 2687 4378 2801 
L 4781 4423 
z
" transform="scale(0.015625)"/>
       </defs>
       <use xlink:href="#CMMI12-43" transform="scale(0.996264)"/>
       <use xlink:href="#CMMI12-43" transform="translate(76.946847 0)scale(0.996264)"/>
       <use xlink:href="#CMMI12-52" transform="translate(153.893693 0)scale(0.996264)"/>
       <use xlink:href="#CMMI12-73" transform="translate(228.964655 0)scale(0.996264)"/>
      </g>
     </g>
    </g>
    <g id="xtick_3">
     <g id="text_3">
      <!-- $Kinases$ -->
      <g style="fill: #262626" transform="translate(465.728322 573.205867)scale(0.275 -0.275)">
       <defs>
        <path id="CMMI12-4b" d="M 3200 2571 
C 3194 2590 3168 2641 3168 2661 
C 3168 2667 3174 2673 3283 2756 
L 3904 3242 
C 4762 3905 5043 4128 5485 4167 
C 5530 4167 5594 4167 5594 4282 
C 5594 4320 5574 4352 5523 4352 
C 5453 4352 5376 4352 5306 4352 
L 5062 4352 
C 4864 4352 4653 4352 4461 4352 
C 4416 4352 4339 4352 4339 4237 
C 4339 4173 4384 4167 4422 4167 
C 4493 4160 4576 4135 4576 4046 
C 4576 3919 4384 3765 4333 3727 
L 1824 1784 
L 2355 3887 
C 2413 4103 2426 4167 2880 4167 
C 3002 4167 3059 4167 3059 4288 
C 3059 4352 2995 4352 2963 4352 
C 2848 4352 2714 4352 2592 4352 
L 1837 4352 
C 1722 4352 1581 4352 1466 4352 
C 1414 4352 1344 4352 1344 4231 
C 1344 4167 1402 4167 1498 4167 
C 1888 4167 1888 4116 1888 4046 
C 1888 4034 1888 3995 1862 3899 
L 998 472 
C 941 249 928 185 480 185 
C 358 185 294 185 294 70 
C 294 0 352 0 390 0 
C 512 0 640 0 762 0 
L 1510 0 
C 1632 0 1766 0 1888 0 
C 1939 0 2010 0 2010 121 
C 2010 185 1952 185 1856 185 
C 1466 185 1466 236 1466 300 
C 1466 345 1504 504 1530 606 
L 1779 1593 
L 2752 2351 
C 2938 1943 3277 1128 3539 505 
C 3558 466 3571 428 3571 383 
C 3571 185 3315 185 3258 185 
C 3200 185 3136 185 3136 64 
C 3136 0 3206 0 3226 0 
C 3450 0 3686 0 3910 0 
L 4218 0 
C 4314 0 4422 0 4518 0 
C 4557 0 4627 0 4627 121 
C 4627 185 4570 185 4506 185 
C 4269 185 4186 236 4090 466 
L 3200 2571 
z
" transform="scale(0.015625)"/>
        <path id="CMMI12-69" d="M 1811 913 
C 1811 945 1786 971 1747 971 
C 1690 971 1683 952 1651 843 
C 1485 262 1222 64 1011 64 
C 934 64 845 83 845 275 
C 845 447 922 639 992 830 
L 1440 2018 
C 1459 2069 1504 2184 1504 2305 
C 1504 2574 1312 2816 998 2816 
C 410 2816 173 1890 173 1839 
C 173 1814 198 1782 243 1782 
C 301 1782 307 1807 333 1896 
C 486 2428 730 2682 979 2682 
C 1037 2682 1146 2682 1146 2478 
C 1146 2312 1062 2101 1011 1961 
L 563 773 
C 525 671 486 568 486 453 
C 486 166 685 -64 992 -64 
C 1581 -64 1811 869 1811 913 
z
M 1760 4013 
C 1760 4109 1683 4224 1542 4224 
C 1395 4224 1229 4083 1229 3917 
C 1229 3758 1363 3707 1440 3707 
C 1613 3707 1760 3873 1760 4013 
z
" transform="scale(0.015625)"/>
        <path id="CMMI12-6e" d="M 1318 1871 
C 1331 1910 1491 2229 1728 2433 
C 1894 2586 2112 2689 2362 2689 
C 2618 2689 2707 2497 2707 2242 
C 2707 1878 2445 1150 2317 805 
C 2259 651 2227 568 2227 453 
C 2227 166 2426 -64 2733 -64 
C 3328 -64 3552 875 3552 913 
C 3552 945 3526 971 3488 971 
C 3430 971 3424 952 3392 843 
C 3245 319 3002 64 2752 64 
C 2688 64 2586 64 2586 269 
C 2586 429 2656 621 2694 710 
C 2822 1063 3091 1780 3091 2145 
C 3091 2528 2867 2816 2381 2816 
C 1811 2816 1510 2415 1395 2255 
C 1376 2618 1114 2816 832 2816 
C 627 2816 486 2695 378 2478 
C 262 2248 173 1865 173 1839 
C 173 1814 198 1782 243 1782 
C 294 1782 301 1788 339 1935 
C 442 2325 557 2689 813 2689 
C 960 2689 1011 2586 1011 2395 
C 1011 2254 947 2005 902 1807 
L 723 1118 
C 698 996 627 709 595 594 
C 550 428 480 128 480 96 
C 480 6 550 -64 646 -64 
C 723 -64 813 -26 864 70 
C 877 102 934 326 966 453 
L 1107 1028 
L 1318 1871 
z
" transform="scale(0.015625)"/>
        <path id="CMMI12-61" d="M 1926 760 
C 1894 651 1894 639 1805 517 
C 1664 338 1382 64 1082 64 
C 819 64 672 300 672 677 
C 672 1028 870 1743 992 2012 
C 1210 2459 1510 2689 1760 2689 
C 2182 2689 2266 2165 2266 2114 
C 2266 2108 2246 2024 2240 2012 
L 1926 760 
z
M 2336 2395 
C 2266 2561 2093 2816 1760 2816 
C 1037 2816 256 1884 256 939 
C 256 307 627 -64 1062 -64 
C 1414 -64 1715 211 1894 422 
C 1958 45 2259 -64 2451 -64 
C 2643 -64 2797 51 2912 281 
C 3014 498 3104 888 3104 913 
C 3104 945 3078 971 3040 971 
C 2982 971 2976 939 2950 843 
C 2854 466 2733 64 2470 64 
C 2285 64 2272 230 2272 358 
C 2272 505 2291 575 2349 824 
C 2394 984 2426 1124 2477 1309 
C 2714 2267 2771 2497 2771 2535 
C 2771 2625 2701 2695 2605 2695 
C 2400 2695 2349 2472 2336 2395 
z
" transform="scale(0.015625)"/>
        <path id="CMMI12-65" d="M 1146 1479 
C 1318 1479 1754 1479 2061 1595 
C 2547 1783 2592 2158 2592 2274 
C 2592 2558 2349 2816 1926 2816 
C 1254 2816 288 2210 288 1073 
C 288 402 672 -64 1254 -64 
C 2125 -64 2675 609 2675 692 
C 2675 730 2637 762 2611 762 
C 2592 762 2586 756 2528 699 
C 2118 159 1510 64 1267 64 
C 902 64 710 350 710 822 
C 710 911 710 1071 806 1479 
L 1146 1479 
z
M 838 1600 
C 1114 2592 1722 2689 1926 2689 
C 2208 2689 2400 2522 2400 2277 
C 2400 1600 1376 1600 1107 1600 
L 838 1600 
z
" transform="scale(0.015625)"/>
       </defs>
       <use xlink:href="#CMMI12-4b" transform="scale(0.996264)"/>
       <use xlink:href="#CMMI12-69" transform="translate(90.147421 0)scale(0.996264)"/>
       <use xlink:href="#CMMI12-6e" transform="translate(123.426023 0)scale(0.996264)"/>
       <use xlink:href="#CMMI12-61" transform="translate(181.65607 0)scale(0.996264)"/>
       <use xlink:href="#CMMI12-73" transform="translate(232.863928 0)scale(0.996264)"/>
       <use xlink:href="#CMMI12-65" transform="translate(278.813975 0)scale(0.996264)"/>
       <use xlink:href="#CMMI12-73" transform="translate(324.025976 0)scale(0.996264)"/>
      </g>
     </g>
    </g>
    <g id="xtick_4">
     <g id="text_4">
      <!-- $MRs$ -->
      <g style="fill: #262626" transform="translate(641.792366 573.205867)scale(0.275 -0.275)">
       <defs>
        <path id="CMMI12-4d" d="M 5811 3886 
C 5869 4103 5882 4167 6336 4167 
C 6458 4167 6515 4167 6515 4288 
C 6515 4352 6470 4352 6349 4352 
L 5581 4352 
C 5421 4352 5414 4346 5344 4243 
L 3008 562 
L 2528 4211 
C 2509 4352 2502 4352 2336 4352 
L 1542 4352 
C 1421 4352 1363 4352 1363 4231 
C 1363 4167 1421 4167 1517 4167 
C 1907 4167 1907 4116 1907 4046 
C 1907 4034 1907 3995 1882 3899 
L 1062 634 
C 986 327 838 186 410 186 
C 390 186 314 186 314 73 
C 314 0 371 0 397 0 
C 525 0 851 0 979 0 
L 1286 0 
C 1376 0 1485 0 1574 0 
C 1619 0 1690 0 1690 122 
C 1690 180 1626 186 1600 186 
C 1389 186 1184 224 1184 454 
C 1184 518 1184 524 1210 613 
L 2093 4129 
L 2099 4129 
L 2630 172 
C 2650 19 2656 0 2714 0 
C 2784 0 2816 51 2848 109 
L 5421 4161 
L 5427 4161 
L 4499 473 
C 4442 250 4429 186 3981 186 
C 3859 186 3795 186 3795 70 
C 3795 0 3853 0 3891 0 
C 4000 0 4128 0 4237 0 
L 4992 0 
C 5101 0 5235 0 5344 0 
C 5395 0 5466 0 5466 122 
C 5466 186 5408 186 5312 186 
C 4922 186 4922 234 4922 294 
C 4922 301 4922 345 4934 396 
L 5811 3886 
z
" transform="scale(0.015625)"/>
       </defs>
       <use xlink:href="#CMMI12-4d" transform="scale(0.996264)"/>
       <use xlink:href="#CMMI12-52" transform="translate(104.780079 0)scale(0.996264)"/>
       <use xlink:href="#CMMI12-73" transform="translate(179.851041 0)scale(0.996264)"/>
      </g>
     </g>
    </g>
    <g id="xtick_5">
     <g id="text_5">
      <!-- $SLC6$ -->
      <g style="fill: #262626" transform="translate(794.044642 573.205867)scale(0.275 -0.275)">
       <defs>
        <path id="CMMI12-53" d="M 4064 4423 
C 4064 4480 4019 4480 4006 4480 
C 3981 4480 3974 4474 3898 4378 
C 3859 4333 3597 4001 3590 3995 
C 3379 4410 2957 4480 2688 4480 
C 1875 4480 1139 3743 1139 3025 
C 1139 2549 1427 2269 1741 2161 
C 1811 2135 2189 2033 2381 1989 
C 2707 1900 2790 1875 2925 1735 
C 2950 1703 3078 1557 3078 1258 
C 3078 667 2528 57 1888 57 
C 1363 57 781 280 781 991 
C 781 1112 806 1265 826 1328 
C 826 1348 832 1378 832 1391 
C 832 1417 819 1449 768 1449 
C 710 1449 704 1436 678 1328 
L 352 24 
C 352 18 326 -64 326 -71 
C 326 -128 378 -128 390 -128 
C 416 -128 422 -122 499 -26 
L 794 356 
C 947 126 1280 -128 1875 -128 
C 2701 -128 3456 666 3456 1460 
C 3456 1728 3392 1963 3149 2197 
C 3014 2331 2899 2363 2310 2516 
C 1882 2630 1824 2649 1709 2751 
C 1600 2858 1517 3011 1517 3227 
C 1517 3761 2061 4308 2669 4308 
C 3296 4308 3590 3926 3590 3323 
C 3590 3158 3558 2986 3558 2961 
C 3558 2903 3610 2903 3629 2903 
C 3686 2903 3693 2922 3718 3024 
L 4064 4423 
z
" transform="scale(0.015625)"/>
        <path id="CMMI12-4c" d="M 2349 3861 
C 2406 4103 2426 4167 2989 4167 
C 3162 4167 3206 4167 3206 4288 
C 3206 4352 3136 4352 3110 4352 
C 2982 4352 2835 4352 2707 4352 
L 1850 4352 
C 1728 4352 1587 4352 1466 4352 
C 1414 4352 1344 4352 1344 4231 
C 1344 4167 1402 4167 1498 4167 
C 1888 4167 1888 4116 1888 4046 
C 1888 4034 1888 3995 1862 3899 
L 998 472 
C 941 249 928 185 480 185 
C 358 185 294 185 294 70 
C 294 0 333 0 461 0 
L 3328 0 
C 3469 0 3475 6 3520 121 
L 4013 1478 
C 4026 1510 4038 1548 4038 1567 
C 4038 1605 4006 1631 3974 1631 
C 3968 1631 3936 1631 3923 1605 
C 3910 1599 3910 1586 3859 1465 
C 3654 905 3366 185 2285 185 
L 1670 185 
C 1581 185 1568 185 1530 192 
C 1459 198 1453 211 1453 262 
C 1453 307 1466 345 1478 401 
L 2349 3861 
z
" transform="scale(0.015625)"/>
        <path id="CMR17-36" d="M 678 2176 
C 678 3690 1395 4032 1811 4032 
C 1946 4032 2272 4009 2400 3776 
C 2298 3776 2106 3776 2106 3553 
C 2106 3381 2246 3323 2336 3323 
C 2394 3323 2566 3348 2566 3560 
C 2566 3954 2246 4179 1805 4179 
C 1043 4179 243 3390 243 1984 
C 243 253 966 -128 1478 -128 
C 2099 -128 2688 427 2688 1283 
C 2688 2081 2170 2662 1517 2662 
C 1126 2662 838 2407 678 1960 
L 678 2176 
z
M 1478 25 
C 691 25 691 1200 691 1436 
C 691 1896 909 2560 1504 2560 
C 1613 2560 1926 2560 2138 2120 
C 2253 1870 2253 1609 2253 1289 
C 2253 944 2253 690 2118 434 
C 1978 171 1773 25 1478 25 
z
" transform="scale(0.015625)"/>
       </defs>
       <use xlink:href="#CMMI12-53" transform="scale(0.996264)"/>
       <use xlink:href="#CMMI12-4c" transform="translate(65.794439 0)scale(0.996264)"/>
       <use xlink:href="#CMMI12-43" transform="translate(132.165315 0)scale(0.996264)"/>
       <use xlink:href="#CMR17-36" transform="translate(209.112161 0)scale(0.996264)"/>
      </g>
     </g>
    </g>
   </g>
   <g id="matplotlib.axis_2">
    <g id="ytick_1">
     <g id="line2d_1">
      <path d="M 126 544.68 
L 907.2 544.68 
" clip-path="url(#p5f96556c15)" style="fill: none; stroke: #cccccc; stroke-opacity: 0.2; stroke-linecap: round"/>
     </g>
     <g id="line2d_2">
      <defs>
       <path id="ma8b5201d8b" d="M 0 0 
L -6 0 
" style="stroke: #262626; stroke-width: 1.25"/>
      </defs>
      <g>
       <use xlink:href="#ma8b5201d8b" x="126" y="544.68" style="fill: #262626; stroke: #262626; stroke-width: 1.25"/>
      </g>
     </g>
     <g id="text_6">
      <!-- $\mathdefault{0.0}$ -->
      <g style="fill: #262626" transform="translate(83.918521 554.192933)scale(0.275 -0.275)">
       <defs>
        <path id="CMR17-30" d="M 2688 2025 
C 2688 2416 2682 3080 2413 3591 
C 2176 4039 1798 4198 1466 4198 
C 1158 4198 768 4058 525 3597 
C 269 3118 243 2524 243 2025 
C 243 1661 250 1106 448 619 
C 723 -39 1216 -128 1466 -128 
C 1760 -128 2208 -7 2470 600 
C 2662 1042 2688 1559 2688 2025 
z
M 1466 -26 
C 1056 -26 813 325 723 812 
C 653 1188 653 1738 653 2096 
C 653 2588 653 2997 736 3387 
C 858 3929 1216 4096 1466 4096 
C 1728 4096 2067 3923 2189 3400 
C 2272 3036 2278 2607 2278 2096 
C 2278 1680 2278 1169 2202 792 
C 2067 95 1690 -26 1466 -26 
z
" transform="scale(0.015625)"/>
        <path id="CMMI12-3a" d="M 1178 307 
C 1178 492 1024 619 870 619 
C 685 619 557 466 557 313 
C 557 128 710 0 864 0 
C 1050 0 1178 153 1178 307 
z
" transform="scale(0.015625)"/>
       </defs>
       <use xlink:href="#CMR17-30" transform="scale(0.996264)"/>
       <use xlink:href="#CMMI12-3a" transform="translate(45.690477 0)scale(0.996264)"/>
       <use xlink:href="#CMR17-30" transform="translate(72.787654 0)scale(0.996264)"/>
      </g>
     </g>
    </g>
    <g id="ytick_2">
     <g id="line2d_3">
      <path d="M 126 497.556 
L 907.2 497.556 
" clip-path="url(#p5f96556c15)" style="fill: none; stroke: #cccccc; stroke-opacity: 0.2; stroke-linecap: round"/>
     </g>
     <g id="line2d_4">
      <g>
       <use xlink:href="#ma8b5201d8b" x="126" y="497.556" style="fill: #262626; stroke: #262626; stroke-width: 1.25"/>
      </g>
     </g>
     <g id="text_7">
      <!-- $\mathdefault{0.1}$ -->
      <g style="fill: #262626" transform="translate(83.918521 507.068933)scale(0.275 -0.275)">
       <defs>
        <path id="CMR17-31" d="M 1702 4058 
C 1702 4192 1696 4192 1606 4192 
C 1357 3916 979 3827 621 3827 
C 602 3827 570 3827 563 3808 
C 557 3795 557 3782 557 3648 
C 755 3648 1088 3686 1344 3839 
L 1344 461 
C 1344 236 1331 160 781 160 
L 589 160 
L 589 0 
C 896 0 1216 0 1523 0 
C 1830 0 2150 0 2458 0 
L 2458 160 
L 2266 160 
C 1715 160 1702 230 1702 458 
L 1702 4058 
z
" transform="scale(0.015625)"/>
       </defs>
       <use xlink:href="#CMR17-30" transform="scale(0.996264)"/>
       <use xlink:href="#CMMI12-3a" transform="translate(45.690477 0)scale(0.996264)"/>
       <use xlink:href="#CMR17-31" transform="translate(72.787654 0)scale(0.996264)"/>
      </g>
     </g>
    </g>
    <g id="ytick_3">
     <g id="line2d_5">
      <path d="M 126 450.432 
L 907.2 450.432 
" clip-path="url(#p5f96556c15)" style="fill: none; stroke: #cccccc; stroke-opacity: 0.2; stroke-linecap: round"/>
     </g>
     <g id="line2d_6">
      <g>
       <use xlink:href="#ma8b5201d8b" x="126" y="450.432" style="fill: #262626; stroke: #262626; stroke-width: 1.25"/>
      </g>
     </g>
     <g id="text_8">
      <!-- $\mathdefault{0.2}$ -->
      <g style="fill: #262626" transform="translate(83.918521 459.944933)scale(0.275 -0.275)">
       <defs>
        <path id="CMR17-32" d="M 2669 989 
L 2554 989 
C 2490 536 2438 459 2413 420 
C 2381 369 1920 369 1830 369 
L 602 369 
C 832 619 1280 1072 1824 1597 
C 2214 1967 2669 2402 2669 3035 
C 2669 3790 2067 4224 1395 4224 
C 691 4224 262 3604 262 3030 
C 262 2780 448 2748 525 2748 
C 589 2748 781 2787 781 3010 
C 781 3207 614 3264 525 3264 
C 486 3264 448 3258 422 3245 
C 544 3790 915 4058 1306 4058 
C 1862 4058 2227 3617 2227 3035 
C 2227 2479 1901 2000 1536 1584 
L 262 146 
L 262 0 
L 2515 0 
L 2669 989 
z
" transform="scale(0.015625)"/>
       </defs>
       <use xlink:href="#CMR17-30" transform="scale(0.996264)"/>
       <use xlink:href="#CMMI12-3a" transform="translate(45.690477 0)scale(0.996264)"/>
       <use xlink:href="#CMR17-32" transform="translate(72.787654 0)scale(0.996264)"/>
      </g>
     </g>
    </g>
    <g id="ytick_4">
     <g id="line2d_7">
      <path d="M 126 403.308 
L 907.2 403.308 
" clip-path="url(#p5f96556c15)" style="fill: none; stroke: #cccccc; stroke-opacity: 0.2; stroke-linecap: round"/>
     </g>
     <g id="line2d_8">
      <g>
       <use xlink:href="#ma8b5201d8b" x="126" y="403.308" style="fill: #262626; stroke: #262626; stroke-width: 1.25"/>
      </g>
     </g>
     <g id="text_9">
      <!-- $\mathdefault{0.3}$ -->
      <g style="fill: #262626" transform="translate(83.918521 412.820933)scale(0.275 -0.275)">
       <defs>
        <path id="CMR17-33" d="M 1414 2157 
C 1984 2157 2234 1662 2234 1090 
C 2234 320 1824 25 1453 25 
C 1114 25 563 194 390 693 
C 422 680 454 680 486 680 
C 640 680 755 782 755 948 
C 755 1133 614 1216 486 1216 
C 378 1216 211 1165 211 926 
C 211 335 787 -128 1466 -128 
C 2176 -128 2720 430 2720 1085 
C 2720 1707 2208 2157 1600 2227 
C 2086 2328 2554 2756 2554 3329 
C 2554 3820 2048 4179 1472 4179 
C 890 4179 378 3829 378 3329 
C 378 3110 544 3072 627 3072 
C 762 3072 877 3155 877 3321 
C 877 3486 762 3569 627 3569 
C 602 3569 570 3569 544 3557 
C 730 3959 1235 4032 1459 4032 
C 1683 4032 2106 3925 2106 3320 
C 2106 3143 2080 2828 1862 2550 
C 1670 2304 1453 2304 1242 2284 
C 1210 2284 1062 2269 1037 2269 
C 992 2263 966 2257 966 2208 
C 966 2163 973 2157 1101 2157 
L 1414 2157 
z
" transform="scale(0.015625)"/>
       </defs>
       <use xlink:href="#CMR17-30" transform="scale(0.996264)"/>
       <use xlink:href="#CMMI12-3a" transform="translate(45.690477 0)scale(0.996264)"/>
       <use xlink:href="#CMR17-33" transform="translate(72.787654 0)scale(0.996264)"/>
      </g>
     </g>
    </g>
    <g id="ytick_5">
     <g id="line2d_9">
      <path d="M 126 356.184 
L 907.2 356.184 
" clip-path="url(#p5f96556c15)" style="fill: none; stroke: #cccccc; stroke-opacity: 0.2; stroke-linecap: round"/>
     </g>
     <g id="line2d_10">
      <g>
       <use xlink:href="#ma8b5201d8b" x="126" y="356.184" style="fill: #262626; stroke: #262626; stroke-width: 1.25"/>
      </g>
     </g>
     <g id="text_10">
      <!-- $\mathdefault{0.4}$ -->
      <g style="fill: #262626" transform="translate(83.918521 365.696933)scale(0.275 -0.275)">
       <defs>
        <path id="CMR17-34" d="M 2150 4122 
C 2150 4256 2144 4256 2029 4256 
L 128 1254 
L 128 1088 
L 1779 1088 
L 1779 457 
C 1779 224 1766 160 1318 160 
L 1197 160 
L 1197 0 
C 1402 0 1747 0 1965 0 
C 2182 0 2528 0 2733 0 
L 2733 160 
L 2611 160 
C 2163 160 2150 224 2150 457 
L 2150 1088 
L 2803 1088 
L 2803 1254 
L 2150 1254 
L 2150 4122 
z
M 1798 3703 
L 1798 1254 
L 256 1254 
L 1798 3703 
z
" transform="scale(0.015625)"/>
       </defs>
       <use xlink:href="#CMR17-30" transform="scale(0.996264)"/>
       <use xlink:href="#CMMI12-3a" transform="translate(45.690477 0)scale(0.996264)"/>
       <use xlink:href="#CMR17-34" transform="translate(72.787654 0)scale(0.996264)"/>
      </g>
     </g>
    </g>
    <g id="ytick_6">
     <g id="line2d_11">
      <path d="M 126 309.06 
L 907.2 309.06 
" clip-path="url(#p5f96556c15)" style="fill: none; stroke: #cccccc; stroke-opacity: 0.2; stroke-linecap: round"/>
     </g>
     <g id="line2d_12">
      <g>
       <use xlink:href="#ma8b5201d8b" x="126" y="309.06" style="fill: #262626; stroke: #262626; stroke-width: 1.25"/>
      </g>
     </g>
     <g id="text_11">
      <!-- $\mathdefault{0.5}$ -->
      <g style="fill: #262626" transform="translate(83.918521 318.572933)scale(0.275 -0.275)">
       <defs>
        <path id="CMR17-35" d="M 730 3692 
C 794 3666 1056 3584 1325 3584 
C 1920 3584 2246 3911 2432 4100 
C 2432 4157 2432 4192 2394 4192 
C 2387 4192 2374 4192 2323 4163 
C 2099 4058 1837 3973 1517 3973 
C 1325 3973 1037 3999 723 4139 
C 653 4171 640 4171 634 4171 
C 602 4171 595 4164 595 4037 
L 595 2203 
C 595 2089 595 2057 659 2057 
C 691 2057 704 2070 736 2114 
C 941 2401 1222 2522 1542 2522 
C 1766 2522 2246 2382 2246 1289 
C 2246 1085 2246 715 2054 421 
C 1894 159 1645 25 1370 25 
C 947 25 518 320 403 814 
C 429 807 480 795 506 795 
C 589 795 749 840 749 1038 
C 749 1210 627 1280 506 1280 
C 358 1280 262 1190 262 1011 
C 262 454 704 -128 1382 -128 
C 2042 -128 2669 440 2669 1264 
C 2669 2030 2170 2624 1549 2624 
C 1222 2624 947 2503 730 2274 
L 730 3692 
z
" transform="scale(0.015625)"/>
       </defs>
       <use xlink:href="#CMR17-30" transform="scale(0.996264)"/>
       <use xlink:href="#CMMI12-3a" transform="translate(45.690477 0)scale(0.996264)"/>
       <use xlink:href="#CMR17-35" transform="translate(72.787654 0)scale(0.996264)"/>
      </g>
     </g>
    </g>
    <g id="ytick_7">
     <g id="line2d_13">
      <path d="M 126 261.936 
L 907.2 261.936 
" clip-path="url(#p5f96556c15)" style="fill: none; stroke: #cccccc; stroke-opacity: 0.2; stroke-linecap: round"/>
     </g>
     <g id="line2d_14">
      <g>
       <use xlink:href="#ma8b5201d8b" x="126" y="261.936" style="fill: #262626; stroke: #262626; stroke-width: 1.25"/>
      </g>
     </g>
     <g id="text_12">
      <!-- $\mathdefault{0.6}$ -->
      <g style="fill: #262626" transform="translate(83.918521 271.448933)scale(0.275 -0.275)">
       <use xlink:href="#CMR17-30" transform="scale(0.996264)"/>
       <use xlink:href="#CMMI12-3a" transform="translate(45.690477 0)scale(0.996264)"/>
       <use xlink:href="#CMR17-36" transform="translate(72.787654 0)scale(0.996264)"/>
      </g>
     </g>
    </g>
    <g id="ytick_8">
     <g id="line2d_15">
      <path d="M 126 214.812 
L 907.2 214.812 
" clip-path="url(#p5f96556c15)" style="fill: none; stroke: #cccccc; stroke-opacity: 0.2; stroke-linecap: round"/>
     </g>
     <g id="line2d_16">
      <g>
       <use xlink:href="#ma8b5201d8b" x="126" y="214.812" style="fill: #262626; stroke: #262626; stroke-width: 1.25"/>
      </g>
     </g>
     <g id="text_13">
      <!-- $\mathdefault{0.7}$ -->
      <g style="fill: #262626" transform="translate(83.918521 224.324933)scale(0.275 -0.275)">
       <defs>
        <path id="CMR17-37" d="M 2886 3941 
L 2886 4081 
L 1382 4081 
C 634 4081 621 4165 595 4288 
L 480 4288 
L 294 3094 
L 410 3094 
C 429 3215 474 3540 550 3661 
C 589 3712 1062 3712 1171 3712 
L 2579 3712 
L 1869 2661 
C 1395 1954 1069 999 1069 165 
C 1069 89 1069 -128 1299 -128 
C 1530 -128 1530 89 1530 171 
L 1530 465 
C 1530 1508 1709 2196 2003 2636 
L 2886 3941 
z
" transform="scale(0.015625)"/>
       </defs>
       <use xlink:href="#CMR17-30" transform="scale(0.996264)"/>
       <use xlink:href="#CMMI12-3a" transform="translate(45.690477 0)scale(0.996264)"/>
       <use xlink:href="#CMR17-37" transform="translate(72.787654 0)scale(0.996264)"/>
      </g>
     </g>
    </g>
    <g id="ytick_9">
     <g id="line2d_17">
      <path d="M 126 167.688 
L 907.2 167.688 
" clip-path="url(#p5f96556c15)" style="fill: none; stroke: #cccccc; stroke-opacity: 0.2; stroke-linecap: round"/>
     </g>
     <g id="line2d_18">
      <g>
       <use xlink:href="#ma8b5201d8b" x="126" y="167.688" style="fill: #262626; stroke: #262626; stroke-width: 1.25"/>
      </g>
     </g>
     <g id="text_14">
      <!-- $\mathdefault{0.8}$ -->
      <g style="fill: #262626" transform="translate(83.918521 177.200933)scale(0.275 -0.275)">
       <defs>
        <path id="CMR17-38" d="M 1741 2264 
C 2144 2467 2554 2773 2554 3263 
C 2554 3841 1990 4179 1472 4179 
C 890 4179 378 3759 378 3180 
C 378 3021 416 2747 666 2505 
C 730 2442 998 2251 1171 2130 
C 883 1983 211 1634 211 934 
C 211 279 838 -128 1459 -128 
C 2144 -128 2720 362 2720 1010 
C 2720 1590 2330 1857 2074 2029 
L 1741 2264 
z
M 902 2822 
C 851 2854 595 3051 595 3351 
C 595 3739 998 4032 1459 4032 
C 1965 4032 2336 3676 2336 3262 
C 2336 2669 1670 2331 1638 2331 
C 1632 2331 1626 2331 1574 2370 
L 902 2822 
z
M 2080 1519 
C 2176 1449 2483 1240 2483 851 
C 2483 381 2010 25 1472 25 
C 890 25 448 438 448 940 
C 448 1443 838 1862 1280 2060 
L 2080 1519 
z
" transform="scale(0.015625)"/>
       </defs>
       <use xlink:href="#CMR17-30" transform="scale(0.996264)"/>
       <use xlink:href="#CMMI12-3a" transform="translate(45.690477 0)scale(0.996264)"/>
       <use xlink:href="#CMR17-38" transform="translate(72.787654 0)scale(0.996264)"/>
      </g>
     </g>
    </g>
    <g id="ytick_10">
     <g id="line2d_19">
      <path d="M 126 120.564 
L 907.2 120.564 
" clip-path="url(#p5f96556c15)" style="fill: none; stroke: #cccccc; stroke-opacity: 0.2; stroke-linecap: round"/>
     </g>
     <g id="line2d_20">
      <g>
       <use xlink:href="#ma8b5201d8b" x="126" y="120.564" style="fill: #262626; stroke: #262626; stroke-width: 1.25"/>
      </g>
     </g>
     <g id="text_15">
      <!-- $\mathdefault{0.9}$ -->
      <g style="fill: #262626" transform="translate(83.918521 130.076933)scale(0.275 -0.275)">
       <defs>
        <path id="CMR17-39" d="M 2253 1864 
C 2253 464 1670 31 1190 31 
C 1043 31 685 31 538 294 
C 704 268 826 357 826 518 
C 826 692 685 749 595 749 
C 538 749 365 723 365 506 
C 365 71 742 -128 1203 -128 
C 1939 -128 2688 674 2688 2073 
C 2688 3817 1971 4179 1485 4179 
C 851 4179 243 3628 243 2778 
C 243 1991 762 1408 1414 1408 
C 1952 1408 2189 1903 2253 2112 
L 2253 1864 
z
M 1427 1510 
C 1254 1510 1011 1542 813 1922 
C 678 2169 678 2461 678 2771 
C 678 3146 678 3405 858 3684 
C 947 3817 1114 4032 1485 4032 
C 2240 4032 2240 2885 2240 2632 
C 2240 2182 2035 1510 1427 1510 
z
" transform="scale(0.015625)"/>
       </defs>
       <use xlink:href="#CMR17-30" transform="scale(0.996264)"/>
       <use xlink:href="#CMMI12-3a" transform="translate(45.690477 0)scale(0.996264)"/>
       <use xlink:href="#CMR17-39" transform="translate(72.787654 0)scale(0.996264)"/>
      </g>
     </g>
    </g>
    <g id="ytick_11">
     <g id="line2d_21">
      <path d="M 126 73.44 
L 907.2 73.44 
" clip-path="url(#p5f96556c15)" style="fill: none; stroke: #cccccc; stroke-opacity: 0.2; stroke-linecap: round"/>
     </g>
     <g id="line2d_22">
      <g>
       <use xlink:href="#ma8b5201d8b" x="126" y="73.44" style="fill: #262626; stroke: #262626; stroke-width: 1.25"/>
      </g>
     </g>
     <g id="text_16">
      <!-- $\mathdefault{1.0}$ -->
      <g style="fill: #262626" transform="translate(83.918521 82.952933)scale(0.275 -0.275)">
       <use xlink:href="#CMR17-31" transform="scale(0.996264)"/>
       <use xlink:href="#CMMI12-3a" transform="translate(45.690477 0)scale(0.996264)"/>
       <use xlink:href="#CMR17-30" transform="translate(72.787654 0)scale(0.996264)"/>
      </g>
     </g>
    </g>
    <g id="ytick_12">
     <g id="line2d_23">
      <defs>
       <path id="m931e22c0e1" d="M 0 0 
L -4 0 
" style="stroke: #262626"/>
      </defs>
      <g>
       <use xlink:href="#m931e22c0e1" x="126" y="535.2552" style="fill: #262626; stroke: #262626"/>
      </g>
     </g>
    </g>
    <g id="ytick_13">
     <g id="line2d_24">
      <g>
       <use xlink:href="#m931e22c0e1" x="126" y="525.8304" style="fill: #262626; stroke: #262626"/>
      </g>
     </g>
    </g>
    <g id="ytick_14">
     <g id="line2d_25">
      <g>
       <use xlink:href="#m931e22c0e1" x="126" y="516.4056" style="fill: #262626; stroke: #262626"/>
      </g>
     </g>
    </g>
    <g id="ytick_15">
     <g id="line2d_26">
      <g>
       <use xlink:href="#m931e22c0e1" x="126" y="506.9808" style="fill: #262626; stroke: #262626"/>
      </g>
     </g>
    </g>
    <g id="ytick_16">
     <g id="line2d_27">
      <g>
       <use xlink:href="#m931e22c0e1" x="126" y="488.1312" style="fill: #262626; stroke: #262626"/>
      </g>
     </g>
    </g>
    <g id="ytick_17">
     <g id="line2d_28">
      <g>
       <use xlink:href="#m931e22c0e1" x="126" y="478.7064" style="fill: #262626; stroke: #262626"/>
      </g>
     </g>
    </g>
    <g id="ytick_18">
     <g id="line2d_29">
      <g>
       <use xlink:href="#m931e22c0e1" x="126" y="469.2816" style="fill: #262626; stroke: #262626"/>
      </g>
     </g>
    </g>
    <g id="ytick_19">
     <g id="line2d_30">
      <g>
       <use xlink:href="#m931e22c0e1" x="126" y="459.8568" style="fill: #262626; stroke: #262626"/>
      </g>
     </g>
    </g>
    <g id="ytick_20">
     <g id="line2d_31">
      <g>
       <use xlink:href="#m931e22c0e1" x="126" y="441.0072" style="fill: #262626; stroke: #262626"/>
      </g>
     </g>
    </g>
    <g id="ytick_21">
     <g id="line2d_32">
      <g>
       <use xlink:href="#m931e22c0e1" x="126" y="431.5824" style="fill: #262626; stroke: #262626"/>
      </g>
     </g>
    </g>
    <g id="ytick_22">
     <g id="line2d_33">
      <g>
       <use xlink:href="#m931e22c0e1" x="126" y="422.1576" style="fill: #262626; stroke: #262626"/>
      </g>
     </g>
    </g>
    <g id="ytick_23">
     <g id="line2d_34">
      <g>
       <use xlink:href="#m931e22c0e1" x="126" y="412.7328" style="fill: #262626; stroke: #262626"/>
      </g>
     </g>
    </g>
    <g id="ytick_24">
     <g id="line2d_35">
      <g>
       <use xlink:href="#m931e22c0e1" x="126" y="393.8832" style="fill: #262626; stroke: #262626"/>
      </g>
     </g>
    </g>
    <g id="ytick_25">
     <g id="line2d_36">
      <g>
       <use xlink:href="#m931e22c0e1" x="126" y="384.4584" style="fill: #262626; stroke: #262626"/>
      </g>
     </g>
    </g>
    <g id="ytick_26">
     <g id="line2d_37">
      <g>
       <use xlink:href="#m931e22c0e1" x="126" y="375.0336" style="fill: #262626; stroke: #262626"/>
      </g>
     </g>
    </g>
    <g id="ytick_27">
     <g id="line2d_38">
      <g>
       <use xlink:href="#m931e22c0e1" x="126" y="365.6088" style="fill: #262626; stroke: #262626"/>
      </g>
     </g>
    </g>
    <g id="ytick_28">
     <g id="line2d_39">
      <g>
       <use xlink:href="#m931e22c0e1" x="126" y="346.7592" style="fill: #262626; stroke: #262626"/>
      </g>
     </g>
    </g>
    <g id="ytick_29">
     <g id="line2d_40">
      <g>
       <use xlink:href="#m931e22c0e1" x="126" y="337.3344" style="fill: #262626; stroke: #262626"/>
      </g>
     </g>
    </g>
    <g id="ytick_30">
     <g id="line2d_41">
      <g>
       <use xlink:href="#m931e22c0e1" x="126" y="327.9096" style="fill: #262626; stroke: #262626"/>
      </g>
     </g>
    </g>
    <g id="ytick_31">
     <g id="line2d_42">
      <g>
       <use xlink:href="#m931e22c0e1" x="126" y="318.4848" style="fill: #262626; stroke: #262626"/>
      </g>
     </g>
    </g>
    <g id="ytick_32">
     <g id="line2d_43">
      <g>
       <use xlink:href="#m931e22c0e1" x="126" y="299.6352" style="fill: #262626; stroke: #262626"/>
      </g>
     </g>
    </g>
    <g id="ytick_33">
     <g id="line2d_44">
      <g>
       <use xlink:href="#m931e22c0e1" x="126" y="290.2104" style="fill: #262626; stroke: #262626"/>
      </g>
     </g>
    </g>
    <g id="ytick_34">
     <g id="line2d_45">
      <g>
       <use xlink:href="#m931e22c0e1" x="126" y="280.7856" style="fill: #262626; stroke: #262626"/>
      </g>
     </g>
    </g>
    <g id="ytick_35">
     <g id="line2d_46">
      <g>
       <use xlink:href="#m931e22c0e1" x="126" y="271.3608" style="fill: #262626; stroke: #262626"/>
      </g>
     </g>
    </g>
    <g id="ytick_36">
     <g id="line2d_47">
      <g>
       <use xlink:href="#m931e22c0e1" x="126" y="252.5112" style="fill: #262626; stroke: #262626"/>
      </g>
     </g>
    </g>
    <g id="ytick_37">
     <g id="line2d_48">
      <g>
       <use xlink:href="#m931e22c0e1" x="126" y="243.0864" style="fill: #262626; stroke: #262626"/>
      </g>
     </g>
    </g>
    <g id="ytick_38">
     <g id="line2d_49">
      <g>
       <use xlink:href="#m931e22c0e1" x="126" y="233.6616" style="fill: #262626; stroke: #262626"/>
      </g>
     </g>
    </g>
    <g id="ytick_39">
     <g id="line2d_50">
      <g>
       <use xlink:href="#m931e22c0e1" x="126" y="224.2368" style="fill: #262626; stroke: #262626"/>
      </g>
     </g>
    </g>
    <g id="ytick_40">
     <g id="line2d_51">
      <g>
       <use xlink:href="#m931e22c0e1" x="126" y="205.3872" style="fill: #262626; stroke: #262626"/>
      </g>
     </g>
    </g>
    <g id="ytick_41">
     <g id="line2d_52">
      <g>
       <use xlink:href="#m931e22c0e1" x="126" y="195.9624" style="fill: #262626; stroke: #262626"/>
      </g>
     </g>
    </g>
    <g id="ytick_42">
     <g id="line2d_53">
      <g>
       <use xlink:href="#m931e22c0e1" x="126" y="186.5376" style="fill: #262626; stroke: #262626"/>
      </g>
     </g>
    </g>
    <g id="ytick_43">
     <g id="line2d_54">
      <g>
       <use xlink:href="#m931e22c0e1" x="126" y="177.1128" style="fill: #262626; stroke: #262626"/>
      </g>
     </g>
    </g>
    <g id="ytick_44">
     <g id="line2d_55">
      <g>
       <use xlink:href="#m931e22c0e1" x="126" y="158.2632" style="fill: #262626; stroke: #262626"/>
      </g>
     </g>
    </g>
    <g id="ytick_45">
     <g id="line2d_56">
      <g>
       <use xlink:href="#m931e22c0e1" x="126" y="148.8384" style="fill: #262626; stroke: #262626"/>
      </g>
     </g>
    </g>
    <g id="ytick_46">
     <g id="line2d_57">
      <g>
       <use xlink:href="#m931e22c0e1" x="126" y="139.4136" style="fill: #262626; stroke: #262626"/>
      </g>
     </g>
    </g>
    <g id="ytick_47">
     <g id="line2d_58">
      <g>
       <use xlink:href="#m931e22c0e1" x="126" y="129.9888" style="fill: #262626; stroke: #262626"/>
      </g>
     </g>
    </g>
    <g id="ytick_48">
     <g id="line2d_59">
      <g>
       <use xlink:href="#m931e22c0e1" x="126" y="111.1392" style="fill: #262626; stroke: #262626"/>
      </g>
     </g>
    </g>
    <g id="ytick_49">
     <g id="line2d_60">
      <g>
       <use xlink:href="#m931e22c0e1" x="126" y="101.7144" style="fill: #262626; stroke: #262626"/>
      </g>
     </g>
    </g>
    <g id="ytick_50">
     <g id="line2d_61">
      <g>
       <use xlink:href="#m931e22c0e1" x="126" y="92.2896" style="fill: #262626; stroke: #262626"/>
      </g>
     </g>
    </g>
    <g id="ytick_51">
     <g id="line2d_62">
      <g>
       <use xlink:href="#m931e22c0e1" x="126" y="82.8648" style="fill: #262626; stroke: #262626"/>
      </g>
     </g>
    </g>
    <g id="text_17">
     <!-- $MCC$ $and$ $r_{Pearson}$ -->
     <g style="fill: #262626" transform="translate(74.105071 426.754867)rotate(-90)scale(0.3 -0.3)">
      <defs>
       <path id="CMMI12-64" d="M 3219 4257 
C 3226 4282 3238 4320 3238 4352 
C 3238 4416 3174 4416 3162 4416 
C 3155 4416 2842 4388 2810 4380 
C 2701 4373 2605 4358 2490 4358 
C 2330 4345 2285 4339 2285 4224 
C 2285 4160 2336 4160 2426 4160 
C 2739 4160 2746 4103 2746 4040 
C 2746 4002 2733 3952 2726 3933 
L 2336 2395 
C 2266 2561 2093 2816 1760 2816 
C 1037 2816 256 1884 256 939 
C 256 307 627 -64 1062 -64 
C 1414 -64 1715 211 1894 422 
C 1958 45 2259 -64 2451 -64 
C 2643 -64 2797 51 2912 281 
C 3014 498 3104 888 3104 913 
C 3104 945 3078 971 3040 971 
C 2982 971 2976 939 2950 843 
C 2854 466 2733 64 2470 64 
C 2285 64 2272 229 2272 357 
C 2272 382 2272 515 2317 694 
L 3219 4257 
z
M 1926 760 
C 1894 651 1894 639 1805 517 
C 1664 338 1382 64 1082 64 
C 819 64 672 300 672 677 
C 672 1028 870 1743 992 2012 
C 1210 2459 1510 2689 1760 2689 
C 2182 2689 2266 2165 2266 2114 
C 2266 2108 2246 2024 2240 2012 
L 1926 760 
z
" transform="scale(0.015625)"/>
       <path id="CMMI12-72" d="M 2490 2612 
C 2291 2574 2189 2433 2189 2293 
C 2189 2139 2310 2088 2400 2088 
C 2579 2088 2726 2242 2726 2433 
C 2726 2638 2528 2816 2208 2816 
C 1952 2816 1658 2701 1389 2312 
C 1344 2650 1088 2816 832 2816 
C 582 2816 454 2625 378 2484 
C 269 2254 173 1871 173 1839 
C 173 1814 198 1782 243 1782 
C 294 1782 301 1788 339 1935 
C 435 2318 557 2689 813 2689 
C 966 2689 1011 2580 1011 2395 
C 1011 2254 947 2005 902 1807 
L 723 1118 
C 698 996 627 709 595 594 
C 550 428 480 128 480 96 
C 480 6 550 -64 646 -64 
C 717 -64 838 -19 877 109 
C 896 160 1133 1124 1171 1271 
C 1203 1411 1242 1546 1274 1686 
C 1299 1775 1325 1878 1344 1961 
C 1363 2018 1536 2331 1696 2472 
C 1773 2542 1939 2689 2202 2689 
C 2304 2689 2406 2670 2490 2612 
z
" transform="scale(0.015625)"/>
       <path id="CMMI12-50" d="M 1894 2023 
L 2970 2023 
C 3853 2023 4736 2673 4736 3401 
C 4736 3898 4314 4352 3507 4352 
L 1530 4352 
C 1408 4352 1350 4352 1350 4231 
C 1350 4167 1408 4167 1504 4167 
C 1894 4167 1894 4116 1894 4046 
C 1894 4034 1894 3995 1869 3899 
L 1005 472 
C 947 249 934 185 486 185 
C 365 185 301 185 301 70 
C 301 0 358 0 397 0 
C 518 0 646 0 768 0 
L 1517 0 
C 1638 0 1773 0 1894 0 
C 1946 0 2016 0 2016 121 
C 2016 185 1958 185 1862 185 
C 1478 185 1472 230 1472 293 
C 1472 325 1478 369 1485 401 
L 1894 2023 
z
M 2355 3930 
C 2413 4167 2438 4167 2688 4167 
L 3322 4167 
C 3802 4167 4198 4013 4198 3535 
C 4198 3369 4115 2827 3821 2534 
C 3712 2419 3405 2176 2822 2176 
L 1920 2176 
L 2355 3930 
z
" transform="scale(0.015625)"/>
       <path id="CMMI12-6f" d="M 2918 1756 
C 2918 2363 2522 2816 1939 2816 
C 1094 2816 262 1897 262 996 
C 262 390 659 -64 1242 -64 
C 2093 -64 2918 856 2918 1756 
z
M 1248 64 
C 928 64 691 319 691 766 
C 691 1060 845 1712 1024 2031 
C 1312 2523 1670 2689 1933 2689 
C 2246 2689 2490 2433 2490 1986 
C 2490 1731 2355 1047 2112 658 
C 1850 230 1498 64 1248 64 
z
" transform="scale(0.015625)"/>
      </defs>
      <use xlink:href="#CMMI12-4d" transform="scale(0.996264)"/>
      <use xlink:href="#CMMI12-43" transform="translate(104.780079 0)scale(0.996264)"/>
      <use xlink:href="#CMMI12-43" transform="translate(181.726926 0)scale(0.996264)"/>
      <use xlink:href="#CMMI12-61" transform="translate(289.902885 0)scale(0.996264)"/>
      <use xlink:href="#CMMI12-6e" transform="translate(341.110743 0)scale(0.996264)"/>
      <use xlink:href="#CMMI12-64" transform="translate(399.34079 0)scale(0.996264)"/>
      <use xlink:href="#CMMI12-72" transform="translate(481.258999 0)scale(0.996264)"/>
      <use xlink:href="#CMMI12-50" transform="translate(525.219894 -14.943915)scale(0.697382)"/>
      <use xlink:href="#CMMI12-65" transform="translate(578.717717 -14.943915)scale(0.697382)"/>
      <use xlink:href="#CMMI12-61" transform="translate(610.365974 -14.943915)scale(0.697382)"/>
      <use xlink:href="#CMMI12-72" transform="translate(646.211321 -14.943915)scale(0.697382)"/>
      <use xlink:href="#CMMI12-73" transform="translate(678.880589 -14.943915)scale(0.697382)"/>
      <use xlink:href="#CMMI12-6f" transform="translate(711.045478 -14.943915)scale(0.697382)"/>
      <use xlink:href="#CMMI12-6e" transform="translate(743.87204 -14.943915)scale(0.697382)"/>
     </g>
    </g>
   </g>
   <g id="patch_3">
    <path d="M 141.624 544.68 
L 183.288 544.68 
L 183.288 300.836608 
L 141.624 300.836608 
z
" clip-path="url(#p5f96556c15)" style="fill: #72b6a1; stroke: #ffffff; stroke-linejoin: miter"/>
   </g>
   <g id="patch_4">
    <path d="M 297.864 544.68 
L 339.528 544.68 
L 339.528 299.652524 
L 297.864 299.652524 
z
" clip-path="url(#p5f96556c15)" style="fill: #72b6a1; stroke: #ffffff; stroke-linejoin: miter"/>
   </g>
   <g id="patch_5">
    <path d="M 454.104 544.68 
L 495.768 544.68 
L 495.768 368.956825 
L 454.104 368.956825 
z
" clip-path="url(#p5f96556c15)" style="fill: #72b6a1; stroke: #ffffff; stroke-linejoin: miter"/>
   </g>
   <g id="patch_6">
    <path d="M 610.344 544.68 
L 652.008 544.68 
L 652.008 288.19566 
L 610.344 288.19566 
z
" clip-path="url(#p5f96556c15)" style="fill: #72b6a1; stroke: #ffffff; stroke-linejoin: miter"/>
   </g>
   <g id="patch_7">
    <path d="M 766.584 544.68 
L 808.248 544.68 
L 808.248 289.942657 
L 766.584 289.942657 
z
" clip-path="url(#p5f96556c15)" style="fill: #72b6a1; stroke: #ffffff; stroke-linejoin: miter"/>
   </g>
   <g id="patch_8">
    <path d="M 183.288 544.68 
L 224.952 544.68 
L 224.952 222.766454 
L 183.288 222.766454 
z
" clip-path="url(#p5f96556c15)" style="fill: #e99675; stroke: #ffffff; stroke-linejoin: miter"/>
   </g>
   <g id="patch_9">
    <path d="M 339.528 544.68 
L 381.192 544.68 
L 381.192 270.436804 
L 339.528 270.436804 
z
" clip-path="url(#p5f96556c15)" style="fill: #e99675; stroke: #ffffff; stroke-linejoin: miter"/>
   </g>
   <g id="patch_10">
    <path d="M 495.768 544.68 
L 537.432 544.68 
L 537.432 342.456363 
L 495.768 342.456363 
z
" clip-path="url(#p5f96556c15)" style="fill: #e99675; stroke: #ffffff; stroke-linejoin: miter"/>
   </g>
   <g id="patch_11">
    <path d="M 652.008 544.68 
L 693.672 544.68 
L 693.672 212.308757 
L 652.008 212.308757 
z
" clip-path="url(#p5f96556c15)" style="fill: #e99675; stroke: #ffffff; stroke-linejoin: miter"/>
   </g>
   <g id="patch_12">
    <path d="M 808.248 544.68 
L 849.912 544.68 
L 849.912 240.742723 
L 808.248 240.742723 
z
" clip-path="url(#p5f96556c15)" style="fill: #e99675; stroke: #ffffff; stroke-linejoin: miter"/>
   </g>
   <g id="patch_13">
    <path d="M 224.952 544.68 
L 266.616 544.68 
L 266.616 307.835098 
L 224.952 307.835098 
z
" clip-path="url(#p5f96556c15)" style="fill: #95a3c3; stroke: #ffffff; stroke-linejoin: miter"/>
   </g>
   <g id="patch_14">
    <path d="M 381.192 544.68 
L 422.856 544.68 
L 422.856 344.858858 
L 381.192 344.858858 
z
" clip-path="url(#p5f96556c15)" style="fill: #95a3c3; stroke: #ffffff; stroke-linejoin: miter"/>
   </g>
   <g id="patch_15">
    <path d="M 537.432 544.68 
L 579.096 544.68 
L 579.096 312.758908 
L 537.432 312.758908 
z
" clip-path="url(#p5f96556c15)" style="fill: #95a3c3; stroke: #ffffff; stroke-linejoin: miter"/>
   </g>
   <g id="patch_16">
    <path d="M 693.672 544.68 
L 735.336 544.68 
L 735.336 302.325146 
L 693.672 302.325146 
z
" clip-path="url(#p5f96556c15)" style="fill: #95a3c3; stroke: #ffffff; stroke-linejoin: miter"/>
   </g>
   <g id="patch_17">
    <path d="M 849.912 544.68 
L 891.576 544.68 
L 891.576 332.47497 
L 849.912 332.47497 
z
" clip-path="url(#p5f96556c15)" style="fill: #95a3c3; stroke: #ffffff; stroke-linejoin: miter"/>
   </g>
   <g id="line2d_63">
    <path d="M 162.456 313.778256 
L 162.456 287.894959 
" clip-path="url(#p5f96556c15)" style="fill: none; stroke: #424242; stroke-linecap: round"/>
   </g>
   <g id="line2d_64">
    <path d="M 154.644 313.778256 
L 170.268 313.778256 
" clip-path="url(#p5f96556c15)" style="fill: none; stroke: #424242; stroke-linecap: round"/>
   </g>
   <g id="line2d_65">
    <path d="M 154.644 287.894959 
L 170.268 287.894959 
" clip-path="url(#p5f96556c15)" style="fill: none; stroke: #424242; stroke-linecap: round"/>
   </g>
   <g id="line2d_66">
    <path d="M 318.696 314.610133 
L 318.696 284.694915 
" clip-path="url(#p5f96556c15)" style="fill: none; stroke: #424242; stroke-linecap: round"/>
   </g>
   <g id="line2d_67">
    <path d="M 310.884 314.610133 
L 326.508 314.610133 
" clip-path="url(#p5f96556c15)" style="fill: none; stroke: #424242; stroke-linecap: round"/>
   </g>
   <g id="line2d_68">
    <path d="M 310.884 284.694915 
L 326.508 284.694915 
" clip-path="url(#p5f96556c15)" style="fill: none; stroke: #424242; stroke-linecap: round"/>
   </g>
   <g id="line2d_69">
    <path d="M 474.936 381.731832 
L 474.936 356.181818 
" clip-path="url(#p5f96556c15)" style="fill: none; stroke: #424242; stroke-linecap: round"/>
   </g>
   <g id="line2d_70">
    <path d="M 467.124 381.731832 
L 482.748 381.731832 
" clip-path="url(#p5f96556c15)" style="fill: none; stroke: #424242; stroke-linecap: round"/>
   </g>
   <g id="line2d_71">
    <path d="M 467.124 356.181818 
L 482.748 356.181818 
" clip-path="url(#p5f96556c15)" style="fill: none; stroke: #424242; stroke-linecap: round"/>
   </g>
   <g id="line2d_72">
    <path d="M 631.176 296.049422 
L 631.176 280.341898 
" clip-path="url(#p5f96556c15)" style="fill: none; stroke: #424242; stroke-linecap: round"/>
   </g>
   <g id="line2d_73">
    <path d="M 623.364 296.049422 
L 638.988 296.049422 
" clip-path="url(#p5f96556c15)" style="fill: none; stroke: #424242; stroke-linecap: round"/>
   </g>
   <g id="line2d_74">
    <path d="M 623.364 280.341898 
L 638.988 280.341898 
" clip-path="url(#p5f96556c15)" style="fill: none; stroke: #424242; stroke-linecap: round"/>
   </g>
   <g id="line2d_75">
    <path d="M 787.416 307.956728 
L 787.416 271.928587 
" clip-path="url(#p5f96556c15)" style="fill: none; stroke: #424242; stroke-linecap: round"/>
   </g>
   <g id="line2d_76">
    <path d="M 779.604 307.956728 
L 795.228 307.956728 
" clip-path="url(#p5f96556c15)" style="fill: none; stroke: #424242; stroke-linecap: round"/>
   </g>
   <g id="line2d_77">
    <path d="M 779.604 271.928587 
L 795.228 271.928587 
" clip-path="url(#p5f96556c15)" style="fill: none; stroke: #424242; stroke-linecap: round"/>
   </g>
   <g id="line2d_78">
    <path d="M 204.12 234.110936 
L 204.12 211.421971 
" clip-path="url(#p5f96556c15)" style="fill: none; stroke: #424242; stroke-linecap: round"/>
   </g>
   <g id="line2d_79">
    <path d="M 196.308 234.110936 
L 211.932 234.110936 
" clip-path="url(#p5f96556c15)" style="fill: none; stroke: #424242; stroke-linecap: round"/>
   </g>
   <g id="line2d_80">
    <path d="M 196.308 211.421971 
L 211.932 211.421971 
" clip-path="url(#p5f96556c15)" style="fill: none; stroke: #424242; stroke-linecap: round"/>
   </g>
   <g id="line2d_81">
    <path d="M 360.36 281.945798 
L 360.36 258.927811 
" clip-path="url(#p5f96556c15)" style="fill: none; stroke: #424242; stroke-linecap: round"/>
   </g>
   <g id="line2d_82">
    <path d="M 352.548 281.945798 
L 368.172 281.945798 
" clip-path="url(#p5f96556c15)" style="fill: none; stroke: #424242; stroke-linecap: round"/>
   </g>
   <g id="line2d_83">
    <path d="M 352.548 258.927811 
L 368.172 258.927811 
" clip-path="url(#p5f96556c15)" style="fill: none; stroke: #424242; stroke-linecap: round"/>
   </g>
   <g id="line2d_84">
    <path d="M 516.6 352.683835 
L 516.6 332.228891 
" clip-path="url(#p5f96556c15)" style="fill: none; stroke: #424242; stroke-linecap: round"/>
   </g>
   <g id="line2d_85">
    <path d="M 508.788 352.683835 
L 524.412 352.683835 
" clip-path="url(#p5f96556c15)" style="fill: none; stroke: #424242; stroke-linecap: round"/>
   </g>
   <g id="line2d_86">
    <path d="M 508.788 332.228891 
L 524.412 332.228891 
" clip-path="url(#p5f96556c15)" style="fill: none; stroke: #424242; stroke-linecap: round"/>
   </g>
   <g id="line2d_87">
    <path d="M 672.84 223.464158 
L 672.84 201.153356 
" clip-path="url(#p5f96556c15)" style="fill: none; stroke: #424242; stroke-linecap: round"/>
   </g>
   <g id="line2d_88">
    <path d="M 665.028 223.464158 
L 680.652 223.464158 
" clip-path="url(#p5f96556c15)" style="fill: none; stroke: #424242; stroke-linecap: round"/>
   </g>
   <g id="line2d_89">
    <path d="M 665.028 201.153356 
L 680.652 201.153356 
" clip-path="url(#p5f96556c15)" style="fill: none; stroke: #424242; stroke-linecap: round"/>
   </g>
   <g id="line2d_90">
    <path d="M 829.08 262.04432 
L 829.08 219.441127 
" clip-path="url(#p5f96556c15)" style="fill: none; stroke: #424242; stroke-linecap: round"/>
   </g>
   <g id="line2d_91">
    <path d="M 821.268 262.04432 
L 836.892 262.04432 
" clip-path="url(#p5f96556c15)" style="fill: none; stroke: #424242; stroke-linecap: round"/>
   </g>
   <g id="line2d_92">
    <path d="M 821.268 219.441127 
L 836.892 219.441127 
" clip-path="url(#p5f96556c15)" style="fill: none; stroke: #424242; stroke-linecap: round"/>
   </g>
   <g id="line2d_93">
    <path d="M 245.784 318.546305 
L 245.784 297.12389 
" clip-path="url(#p5f96556c15)" style="fill: none; stroke: #424242; stroke-linecap: round"/>
   </g>
   <g id="line2d_94">
    <path d="M 237.972 318.546305 
L 253.596 318.546305 
" clip-path="url(#p5f96556c15)" style="fill: none; stroke: #424242; stroke-linecap: round"/>
   </g>
   <g id="line2d_95">
    <path d="M 237.972 297.12389 
L 253.596 297.12389 
" clip-path="url(#p5f96556c15)" style="fill: none; stroke: #424242; stroke-linecap: round"/>
   </g>
   <g id="line2d_96">
    <path d="M 402.024 349.242032 
L 402.024 340.475685 
" clip-path="url(#p5f96556c15)" style="fill: none; stroke: #424242; stroke-linecap: round"/>
   </g>
   <g id="line2d_97">
    <path d="M 394.212 349.242032 
L 409.836 349.242032 
" clip-path="url(#p5f96556c15)" style="fill: none; stroke: #424242; stroke-linecap: round"/>
   </g>
   <g id="line2d_98">
    <path d="M 394.212 340.475685 
L 409.836 340.475685 
" clip-path="url(#p5f96556c15)" style="fill: none; stroke: #424242; stroke-linecap: round"/>
   </g>
   <g id="line2d_99">
    <path d="M 558.264 315.932174 
L 558.264 309.585641 
" clip-path="url(#p5f96556c15)" style="fill: none; stroke: #424242; stroke-linecap: round"/>
   </g>
   <g id="line2d_100">
    <path d="M 550.452 315.932174 
L 566.076 315.932174 
" clip-path="url(#p5f96556c15)" style="fill: none; stroke: #424242; stroke-linecap: round"/>
   </g>
   <g id="line2d_101">
    <path d="M 550.452 309.585641 
L 566.076 309.585641 
" clip-path="url(#p5f96556c15)" style="fill: none; stroke: #424242; stroke-linecap: round"/>
   </g>
   <g id="line2d_102">
    <path d="M 714.504 312.297657 
L 714.504 292.352634 
" clip-path="url(#p5f96556c15)" style="fill: none; stroke: #424242; stroke-linecap: round"/>
   </g>
   <g id="line2d_103">
    <path d="M 706.692 312.297657 
L 722.316 312.297657 
" clip-path="url(#p5f96556c15)" style="fill: none; stroke: #424242; stroke-linecap: round"/>
   </g>
   <g id="line2d_104">
    <path d="M 706.692 292.352634 
L 722.316 292.352634 
" clip-path="url(#p5f96556c15)" style="fill: none; stroke: #424242; stroke-linecap: round"/>
   </g>
   <g id="line2d_105">
    <path d="M 870.744 339.410422 
L 870.744 325.539518 
" clip-path="url(#p5f96556c15)" style="fill: none; stroke: #424242; stroke-linecap: round"/>
   </g>
   <g id="line2d_106">
    <path d="M 862.932 339.410422 
L 878.556 339.410422 
" clip-path="url(#p5f96556c15)" style="fill: none; stroke: #424242; stroke-linecap: round"/>
   </g>
   <g id="line2d_107">
    <path d="M 862.932 325.539518 
L 878.556 325.539518 
" clip-path="url(#p5f96556c15)" style="fill: none; stroke: #424242; stroke-linecap: round"/>
   </g>
   <g id="patch_18">
    <path d="M 126 544.68 
L 126 73.44 
" style="fill: none; stroke: #cccccc; stroke-width: 1.25; stroke-linejoin: miter; stroke-linecap: square"/>
   </g>
   <g id="patch_19">
    <path d="M 907.2 544.68 
L 907.2 73.44 
" style="fill: none; stroke: #cccccc; stroke-width: 1.25; stroke-linejoin: miter; stroke-linecap: square"/>
   </g>
   <g id="patch_20">
    <path d="M 126 544.68 
L 907.2 544.68 
" style="fill: none; stroke: #cccccc; stroke-width: 1.25; stroke-linejoin: miter; stroke-linecap: square"/>
   </g>
   <g id="patch_21">
    <path d="M 126 73.44 
L 907.2 73.44 
" style="fill: none; stroke: #cccccc; stroke-width: 1.25; stroke-linejoin: miter; stroke-linecap: square"/>
   </g>
   <g id="legend_1">
    <g id="patch_22">
     <path d="M 206.515934 635.804 
L 261.515934 635.804 
L 261.515934 616.554 
L 206.515934 616.554 
z
" style="fill: #72b6a1; stroke: #ffffff; stroke-linejoin: miter"/>
    </g>
    <g id="text_18">
     <!-- $MCC$ -->
     <g style="fill: #262626" transform="translate(283.515934 635.804)scale(0.275 -0.275)">
      <use xlink:href="#CMMI12-4d" transform="scale(0.996264)"/>
      <use xlink:href="#CMMI12-43" transform="translate(104.780079 0)scale(0.996264)"/>
      <use xlink:href="#CMMI12-43" transform="translate(181.726926 0)scale(0.996264)"/>
     </g>
    </g>
    <g id="patch_23">
     <path d="M 407.683634 635.804 
L 462.683634 635.804 
L 462.683634 616.554 
L 407.683634 616.554 
z
" style="fill: #e99675; stroke: #ffffff; stroke-linejoin: miter"/>
    </g>
    <g id="text_19">
     <!-- $Pearson$ $r$ -->
     <g style="fill: #262626" transform="translate(484.683634 635.804)scale(0.275 -0.275)">
      <use xlink:href="#CMMI12-50" transform="scale(0.996264)"/>
      <use xlink:href="#CMMI12-65" transform="translate(76.425821 0)scale(0.996264)"/>
      <use xlink:href="#CMMI12-61" transform="translate(121.637822 0)scale(0.996264)"/>
      <use xlink:href="#CMMI12-72" transform="translate(172.845679 0)scale(0.996264)"/>
      <use xlink:href="#CMMI12-73" transform="translate(219.516291 0)scale(0.996264)"/>
      <use xlink:href="#CMMI12-6f" transform="translate(265.466339 0)scale(0.996264)"/>
      <use xlink:href="#CMMI12-6e" transform="translate(312.361649 0)scale(0.996264)"/>
      <use xlink:href="#CMMI12-72" transform="translate(401.820809 0)scale(0.996264)"/>
     </g>
    </g>
    <g id="patch_24">
     <path d="M 662.273513 635.804 
L 717.273513 635.804 
L 717.273513 616.554 
L 662.273513 616.554 
z
" style="fill: #95a3c3; stroke: #ffffff; stroke-linejoin: miter"/>
    </g>
    <g id="text_20">
     <!-- $RMSE$ -->
     <g style="fill: #262626" transform="translate(739.273513 635.804)scale(0.275 -0.275)">
      <defs>
       <path id="CMMI12-45" d="M 4448 1489 
C 4454 1508 4474 1554 4474 1579 
C 4474 1611 4448 1643 4410 1643 
C 4384 1643 4371 1637 4352 1617 
C 4339 1611 4339 1598 4282 1469 
C 3904 570 3629 185 2605 185 
L 1670 185 
C 1581 185 1568 185 1530 192 
C 1459 198 1453 211 1453 262 
C 1453 307 1466 345 1478 403 
L 1920 2176 
L 2554 2176 
C 3053 2176 3091 2066 3091 1874 
C 3091 1810 3091 1752 3046 1560 
C 3034 1534 3027 1508 3027 1489 
C 3027 1444 3059 1425 3098 1425 
C 3155 1425 3162 1469 3187 1559 
L 3552 3042 
C 3552 3073 3526 3105 3488 3105 
C 3430 3105 3424 3080 3398 2990 
C 3270 2501 3142 2361 2573 2361 
L 1965 2361 
L 2362 3930 
C 2419 4154 2432 4154 2694 4154 
L 3610 4154 
C 4397 4154 4557 3943 4557 3458 
C 4557 3451 4557 3273 4531 3062 
C 4525 3036 4518 2998 4518 2985 
C 4518 2934 4550 2915 4589 2915 
C 4634 2915 4659 2941 4672 3055 
L 4806 4174 
C 4806 4195 4819 4263 4819 4277 
C 4819 4352 4762 4352 4646 4352 
L 1523 4352 
C 1402 4352 1338 4352 1338 4229 
C 1338 4154 1382 4154 1491 4154 
C 1888 4154 1888 4114 1888 4052 
C 1888 4020 1882 3994 1862 3924 
L 998 473 
C 941 249 928 185 480 185 
C 358 185 294 185 294 70 
C 294 0 333 0 461 0 
L 3674 0 
C 3814 0 3821 6 3866 110 
L 4448 1489 
z
" transform="scale(0.015625)"/>
      </defs>
      <use xlink:href="#CMMI12-52" transform="scale(0.996264)"/>
      <use xlink:href="#CMMI12-4d" transform="translate(75.070962 0)scale(0.996264)"/>
      <use xlink:href="#CMMI12-53" transform="translate(179.851041 0)scale(0.996264)"/>
      <use xlink:href="#CMMI12-45" transform="translate(245.64548 0)scale(0.996264)"/>
     </g>
    </g>
   </g>
  </g>
  <g id="axes_2">
   <g id="matplotlib.axis_3">
    <g id="ytick_52">
     <g id="line2d_108">
      <path d="M 126 544.68 
L 907.2 544.68 
" clip-path="url(#p5f96556c15)" style="fill: none; stroke: #cccccc; stroke-opacity: 0.2; stroke-linecap: round"/>
     </g>
     <g id="line2d_109">
      <defs>
       <path id="m31d3219243" d="M 0 0 
L 6 0 
" style="stroke: #262626; stroke-width: 1.25"/>
      </defs>
      <g>
       <use xlink:href="#m31d3219243" x="907.2" y="544.68" style="fill: #262626; stroke: #262626; stroke-width: 1.25"/>
      </g>
     </g>
     <g id="text_21">
      <!-- $0.00$ -->
      <g style="fill: #262626" transform="translate(916.7 554.192933)scale(0.275 -0.275)">
       <use xlink:href="#CMR17-30" transform="scale(0.996264)"/>
       <use xlink:href="#CMMI12-3a" transform="translate(45.690477 0)scale(0.996264)"/>
       <use xlink:href="#CMR17-30" transform="translate(72.787654 0)scale(0.996264)"/>
       <use xlink:href="#CMR17-30" transform="translate(118.478131 0)scale(0.996264)"/>
      </g>
     </g>
    </g>
    <g id="ytick_53">
     <g id="line2d_110">
      <path d="M 126 497.556 
L 907.2 497.556 
" clip-path="url(#p5f96556c15)" style="fill: none; stroke: #cccccc; stroke-opacity: 0.2; stroke-linecap: round"/>
     </g>
     <g id="line2d_111">
      <g>
       <use xlink:href="#m31d3219243" x="907.2" y="497.556" style="fill: #262626; stroke: #262626; stroke-width: 1.25"/>
      </g>
     </g>
     <g id="text_22">
      <!-- $0.15$ -->
      <g style="fill: #262626" transform="translate(916.7 507.068933)scale(0.275 -0.275)">
       <use xlink:href="#CMR17-30" transform="scale(0.996264)"/>
       <use xlink:href="#CMMI12-3a" transform="translate(45.690477 0)scale(0.996264)"/>
       <use xlink:href="#CMR17-31" transform="translate(72.787654 0)scale(0.996264)"/>
       <use xlink:href="#CMR17-35" transform="translate(118.478131 0)scale(0.996264)"/>
      </g>
     </g>
    </g>
    <g id="ytick_54">
     <g id="line2d_112">
      <path d="M 126 450.432 
L 907.2 450.432 
" clip-path="url(#p5f96556c15)" style="fill: none; stroke: #cccccc; stroke-opacity: 0.2; stroke-linecap: round"/>
     </g>
     <g id="line2d_113">
      <g>
       <use xlink:href="#m31d3219243" x="907.2" y="450.432" style="fill: #262626; stroke: #262626; stroke-width: 1.25"/>
      </g>
     </g>
     <g id="text_23">
      <!-- $0.30$ -->
      <g style="fill: #262626" transform="translate(916.7 459.944933)scale(0.275 -0.275)">
       <use xlink:href="#CMR17-30" transform="scale(0.996264)"/>
       <use xlink:href="#CMMI12-3a" transform="translate(45.690477 0)scale(0.996264)"/>
       <use xlink:href="#CMR17-33" transform="translate(72.787654 0)scale(0.996264)"/>
       <use xlink:href="#CMR17-30" transform="translate(118.478131 0)scale(0.996264)"/>
      </g>
     </g>
    </g>
    <g id="ytick_55">
     <g id="line2d_114">
      <path d="M 126 403.308 
L 907.2 403.308 
" clip-path="url(#p5f96556c15)" style="fill: none; stroke: #cccccc; stroke-opacity: 0.2; stroke-linecap: round"/>
     </g>
     <g id="line2d_115">
      <g>
       <use xlink:href="#m31d3219243" x="907.2" y="403.308" style="fill: #262626; stroke: #262626; stroke-width: 1.25"/>
      </g>
     </g>
     <g id="text_24">
      <!-- $0.45$ -->
      <g style="fill: #262626" transform="translate(916.7 412.820933)scale(0.275 -0.275)">
       <use xlink:href="#CMR17-30" transform="scale(0.996264)"/>
       <use xlink:href="#CMMI12-3a" transform="translate(45.690477 0)scale(0.996264)"/>
       <use xlink:href="#CMR17-34" transform="translate(72.787654 0)scale(0.996264)"/>
       <use xlink:href="#CMR17-35" transform="translate(118.478131 0)scale(0.996264)"/>
      </g>
     </g>
    </g>
    <g id="ytick_56">
     <g id="line2d_116">
      <path d="M 126 356.184 
L 907.2 356.184 
" clip-path="url(#p5f96556c15)" style="fill: none; stroke: #cccccc; stroke-opacity: 0.2; stroke-linecap: round"/>
     </g>
     <g id="line2d_117">
      <g>
       <use xlink:href="#m31d3219243" x="907.2" y="356.184" style="fill: #262626; stroke: #262626; stroke-width: 1.25"/>
      </g>
     </g>
     <g id="text_25">
      <!-- $0.60$ -->
      <g style="fill: #262626" transform="translate(916.7 365.696933)scale(0.275 -0.275)">
       <use xlink:href="#CMR17-30" transform="scale(0.996264)"/>
       <use xlink:href="#CMMI12-3a" transform="translate(45.690477 0)scale(0.996264)"/>
       <use xlink:href="#CMR17-36" transform="translate(72.787654 0)scale(0.996264)"/>
       <use xlink:href="#CMR17-30" transform="translate(118.478131 0)scale(0.996264)"/>
      </g>
     </g>
    </g>
    <g id="ytick_57">
     <g id="line2d_118">
      <path d="M 126 309.06 
L 907.2 309.06 
" clip-path="url(#p5f96556c15)" style="fill: none; stroke: #cccccc; stroke-opacity: 0.2; stroke-linecap: round"/>
     </g>
     <g id="line2d_119">
      <g>
       <use xlink:href="#m31d3219243" x="907.2" y="309.06" style="fill: #262626; stroke: #262626; stroke-width: 1.25"/>
      </g>
     </g>
     <g id="text_26">
      <!-- $0.75$ -->
      <g style="fill: #262626" transform="translate(916.7 318.572933)scale(0.275 -0.275)">
       <use xlink:href="#CMR17-30" transform="scale(0.996264)"/>
       <use xlink:href="#CMMI12-3a" transform="translate(45.690477 0)scale(0.996264)"/>
       <use xlink:href="#CMR17-37" transform="translate(72.787654 0)scale(0.996264)"/>
       <use xlink:href="#CMR17-35" transform="translate(118.478131 0)scale(0.996264)"/>
      </g>
     </g>
    </g>
    <g id="ytick_58">
     <g id="line2d_120">
      <path d="M 126 261.936 
L 907.2 261.936 
" clip-path="url(#p5f96556c15)" style="fill: none; stroke: #cccccc; stroke-opacity: 0.2; stroke-linecap: round"/>
     </g>
     <g id="line2d_121">
      <g>
       <use xlink:href="#m31d3219243" x="907.2" y="261.936" style="fill: #262626; stroke: #262626; stroke-width: 1.25"/>
      </g>
     </g>
     <g id="text_27">
      <!-- $0.90$ -->
      <g style="fill: #262626" transform="translate(916.7 271.448933)scale(0.275 -0.275)">
       <use xlink:href="#CMR17-30" transform="scale(0.996264)"/>
       <use xlink:href="#CMMI12-3a" transform="translate(45.690477 0)scale(0.996264)"/>
       <use xlink:href="#CMR17-39" transform="translate(72.787654 0)scale(0.996264)"/>
       <use xlink:href="#CMR17-30" transform="translate(118.478131 0)scale(0.996264)"/>
      </g>
     </g>
    </g>
    <g id="ytick_59">
     <g id="line2d_122">
      <path d="M 126 214.812 
L 907.2 214.812 
" clip-path="url(#p5f96556c15)" style="fill: none; stroke: #cccccc; stroke-opacity: 0.2; stroke-linecap: round"/>
     </g>
     <g id="line2d_123">
      <g>
       <use xlink:href="#m31d3219243" x="907.2" y="214.812" style="fill: #262626; stroke: #262626; stroke-width: 1.25"/>
      </g>
     </g>
     <g id="text_28">
      <!-- $1.05$ -->
      <g style="fill: #262626" transform="translate(916.7 224.324933)scale(0.275 -0.275)">
       <use xlink:href="#CMR17-31" transform="scale(0.996264)"/>
       <use xlink:href="#CMMI12-3a" transform="translate(45.690477 0)scale(0.996264)"/>
       <use xlink:href="#CMR17-30" transform="translate(72.787654 0)scale(0.996264)"/>
       <use xlink:href="#CMR17-35" transform="translate(118.478131 0)scale(0.996264)"/>
      </g>
     </g>
    </g>
    <g id="ytick_60">
     <g id="line2d_124">
      <path d="M 126 167.688 
L 907.2 167.688 
" clip-path="url(#p5f96556c15)" style="fill: none; stroke: #cccccc; stroke-opacity: 0.2; stroke-linecap: round"/>
     </g>
     <g id="line2d_125">
      <g>
       <use xlink:href="#m31d3219243" x="907.2" y="167.688" style="fill: #262626; stroke: #262626; stroke-width: 1.25"/>
      </g>
     </g>
     <g id="text_29">
      <!-- $1.20$ -->
      <g style="fill: #262626" transform="translate(916.7 177.200933)scale(0.275 -0.275)">
       <use xlink:href="#CMR17-31" transform="scale(0.996264)"/>
       <use xlink:href="#CMMI12-3a" transform="translate(45.690477 0)scale(0.996264)"/>
       <use xlink:href="#CMR17-32" transform="translate(72.787654 0)scale(0.996264)"/>
       <use xlink:href="#CMR17-30" transform="translate(118.478131 0)scale(0.996264)"/>
      </g>
     </g>
    </g>
    <g id="ytick_61">
     <g id="line2d_126">
      <path d="M 126 120.564 
L 907.2 120.564 
" clip-path="url(#p5f96556c15)" style="fill: none; stroke: #cccccc; stroke-opacity: 0.2; stroke-linecap: round"/>
     </g>
     <g id="line2d_127">
      <g>
       <use xlink:href="#m31d3219243" x="907.2" y="120.564" style="fill: #262626; stroke: #262626; stroke-width: 1.25"/>
      </g>
     </g>
     <g id="text_30">
      <!-- $1.35$ -->
      <g style="fill: #262626" transform="translate(916.7 130.076933)scale(0.275 -0.275)">
       <use xlink:href="#CMR17-31" transform="scale(0.996264)"/>
       <use xlink:href="#CMMI12-3a" transform="translate(45.690477 0)scale(0.996264)"/>
       <use xlink:href="#CMR17-33" transform="translate(72.787654 0)scale(0.996264)"/>
       <use xlink:href="#CMR17-35" transform="translate(118.478131 0)scale(0.996264)"/>
      </g>
     </g>
    </g>
    <g id="ytick_62">
     <g id="line2d_128">
      <path d="M 126 73.44 
L 907.2 73.44 
" clip-path="url(#p5f96556c15)" style="fill: none; stroke: #cccccc; stroke-opacity: 0.2; stroke-linecap: round"/>
     </g>
     <g id="line2d_129">
      <g>
       <use xlink:href="#m31d3219243" x="907.2" y="73.44" style="fill: #262626; stroke: #262626; stroke-width: 1.25"/>
      </g>
     </g>
     <g id="text_31">
      <!-- $1.50$ -->
      <g style="fill: #262626" transform="translate(916.7 82.952933)scale(0.275 -0.275)">
       <use xlink:href="#CMR17-31" transform="scale(0.996264)"/>
       <use xlink:href="#CMMI12-3a" transform="translate(45.690477 0)scale(0.996264)"/>
       <use xlink:href="#CMR17-35" transform="translate(72.787654 0)scale(0.996264)"/>
       <use xlink:href="#CMR17-30" transform="translate(118.478131 0)scale(0.996264)"/>
      </g>
     </g>
    </g>
    <g id="ytick_63">
     <g id="line2d_130">
      <defs>
       <path id="m4c67a35003" d="M 0 0 
L 4 0 
" style="stroke: #262626"/>
      </defs>
      <g>
       <use xlink:href="#m4c67a35003" x="907.2" y="528.972" style="fill: #262626; stroke: #262626"/>
      </g>
     </g>
    </g>
    <g id="ytick_64">
     <g id="line2d_131">
      <g>
       <use xlink:href="#m4c67a35003" x="907.2" y="513.264" style="fill: #262626; stroke: #262626"/>
      </g>
     </g>
    </g>
    <g id="ytick_65">
     <g id="line2d_132">
      <g>
       <use xlink:href="#m4c67a35003" x="907.2" y="481.848" style="fill: #262626; stroke: #262626"/>
      </g>
     </g>
    </g>
    <g id="ytick_66">
     <g id="line2d_133">
      <g>
       <use xlink:href="#m4c67a35003" x="907.2" y="466.14" style="fill: #262626; stroke: #262626"/>
      </g>
     </g>
    </g>
    <g id="ytick_67">
     <g id="line2d_134">
      <g>
       <use xlink:href="#m4c67a35003" x="907.2" y="434.724" style="fill: #262626; stroke: #262626"/>
      </g>
     </g>
    </g>
    <g id="ytick_68">
     <g id="line2d_135">
      <g>
       <use xlink:href="#m4c67a35003" x="907.2" y="419.016" style="fill: #262626; stroke: #262626"/>
      </g>
     </g>
    </g>
    <g id="ytick_69">
     <g id="line2d_136">
      <g>
       <use xlink:href="#m4c67a35003" x="907.2" y="387.6" style="fill: #262626; stroke: #262626"/>
      </g>
     </g>
    </g>
    <g id="ytick_70">
     <g id="line2d_137">
      <g>
       <use xlink:href="#m4c67a35003" x="907.2" y="371.892" style="fill: #262626; stroke: #262626"/>
      </g>
     </g>
    </g>
    <g id="ytick_71">
     <g id="line2d_138">
      <g>
       <use xlink:href="#m4c67a35003" x="907.2" y="340.476" style="fill: #262626; stroke: #262626"/>
      </g>
     </g>
    </g>
    <g id="ytick_72">
     <g id="line2d_139">
      <g>
       <use xlink:href="#m4c67a35003" x="907.2" y="324.768" style="fill: #262626; stroke: #262626"/>
      </g>
     </g>
    </g>
    <g id="ytick_73">
     <g id="line2d_140">
      <g>
       <use xlink:href="#m4c67a35003" x="907.2" y="293.352" style="fill: #262626; stroke: #262626"/>
      </g>
     </g>
    </g>
    <g id="ytick_74">
     <g id="line2d_141">
      <g>
       <use xlink:href="#m4c67a35003" x="907.2" y="277.644" style="fill: #262626; stroke: #262626"/>
      </g>
     </g>
    </g>
    <g id="ytick_75">
     <g id="line2d_142">
      <g>
       <use xlink:href="#m4c67a35003" x="907.2" y="246.228" style="fill: #262626; stroke: #262626"/>
      </g>
     </g>
    </g>
    <g id="ytick_76">
     <g id="line2d_143">
      <g>
       <use xlink:href="#m4c67a35003" x="907.2" y="230.52" style="fill: #262626; stroke: #262626"/>
      </g>
     </g>
    </g>
    <g id="ytick_77">
     <g id="line2d_144">
      <g>
       <use xlink:href="#m4c67a35003" x="907.2" y="199.104" style="fill: #262626; stroke: #262626"/>
      </g>
     </g>
    </g>
    <g id="ytick_78">
     <g id="line2d_145">
      <g>
       <use xlink:href="#m4c67a35003" x="907.2" y="183.396" style="fill: #262626; stroke: #262626"/>
      </g>
     </g>
    </g>
    <g id="ytick_79">
     <g id="line2d_146">
      <g>
       <use xlink:href="#m4c67a35003" x="907.2" y="151.98" style="fill: #262626; stroke: #262626"/>
      </g>
     </g>
    </g>
    <g id="ytick_80">
     <g id="line2d_147">
      <g>
       <use xlink:href="#m4c67a35003" x="907.2" y="136.272" style="fill: #262626; stroke: #262626"/>
      </g>
     </g>
    </g>
    <g id="ytick_81">
     <g id="line2d_148">
      <g>
       <use xlink:href="#m4c67a35003" x="907.2" y="104.856" style="fill: #262626; stroke: #262626"/>
      </g>
     </g>
    </g>
    <g id="ytick_82">
     <g id="line2d_149">
      <g>
       <use xlink:href="#m4c67a35003" x="907.2" y="89.148" style="fill: #262626; stroke: #262626"/>
      </g>
     </g>
    </g>
    <g id="text_32">
     <!-- $RMSE$ -->
     <g style="fill: #262626" transform="translate(986.601855 356.738498)rotate(-90)scale(0.3 -0.3)">
      <use xlink:href="#CMMI12-52" transform="scale(0.996264)"/>
      <use xlink:href="#CMMI12-4d" transform="translate(75.070962 0)scale(0.996264)"/>
      <use xlink:href="#CMMI12-53" transform="translate(179.851041 0)scale(0.996264)"/>
      <use xlink:href="#CMMI12-45" transform="translate(245.64548 0)scale(0.996264)"/>
     </g>
    </g>
   </g>
   <g id="patch_25">
    <path d="M 126 544.68 
L 126 73.44 
" style="fill: none; stroke: #cccccc; stroke-width: 1.25; stroke-linejoin: miter; stroke-linecap: square"/>
   </g>
   <g id="patch_26">
    <path d="M 907.2 544.68 
L 907.2 73.44 
" style="fill: none; stroke: #cccccc; stroke-width: 1.25; stroke-linejoin: miter; stroke-linecap: square"/>
   </g>
   <g id="patch_27">
    <path d="M 126 544.68 
L 907.2 544.68 
" style="fill: none; stroke: #cccccc; stroke-width: 1.25; stroke-linejoin: miter; stroke-linecap: square"/>
   </g>
   <g id="patch_28">
    <path d="M 126 73.44 
L 907.2 73.44 
" style="fill: none; stroke: #cccccc; stroke-width: 1.25; stroke-linejoin: miter; stroke-linecap: square"/>
   </g>
  </g>
 </g>
 <defs>
  <clipPath id="p5f96556c15">
   <rect x="126" y="73.44" width="781.2" height="471.24"/>
  </clipPath>
 </defs>
</svg>
